<?xml version="1.0" encoding="utf-8"?>
<svg xmlns="http://www.w3.org/2000/svg" style="margin: auto; background: none; display: block; shape-rendering: auto; animation-play-state: running; animation-delay: 0s;" width="250" height="250" preserveAspectRatio="xMidYMid">
<style type="text/css" style="animation-play-state: running; animation-delay: 0s;">
  text {
    text-anchor: middle; font-size: 19px; opacity: 0;
  }
</style>
<g style="transform-origin: 125px 125px; transform: scale(0.678571); animation-play-state: running; animation-delay: 0s;">
<g transform="translate(125,125)" style="animation-play-state: running; animation-delay: 0s;">
  <g transform="translate(0,0)" style="animation-play-state: running; animation-delay: 0s;"><g class="path" style="opacity: 1; transform-origin: -61.64px -1.96647px; animation: 1s linear -0.605s infinite normal forwards running fade-35f64f8b-0da8-482c-a047-72c969395c05;"><path d="M6.47 0L6.47-16.91L0.48-16.91L0.48-19.10L14.81-19.10L14.81-16.91L8.82-16.91L8.82 0L6.47 0" fill="#00aced" stroke="none" stroke-width="none" transform="translate(-69.2850341796875,7.583531748453769)" style="fill: rgb(0, 172, 237); animation-play-state: running; animation-delay: 0s;"></path></g><g class="path" style="opacity: 1; transform-origin: -50.865px 0.403532px; animation: 1s linear -0.55s infinite normal forwards running fade-35f64f8b-0da8-482c-a047-72c969395c05;"><path d="M17.30 0L17.30-14.11L19.54-14.36L19.54 0L17.30 0" fill="#00aced" stroke="none" stroke-width="none" transform="translate(-69.2850341796875,7.583531748453769)" style="fill: rgb(0, 172, 237); animation-play-state: running; animation-delay: 0s;"></path></g><g class="path" style="opacity: 1; transform-origin: -50.79px -10.5315px; animation: 1s linear -0.495s infinite normal forwards running fade-35f64f8b-0da8-482c-a047-72c969395c05;"><path d="M16.94-18.12L16.94-18.12L16.94-18.12Q16.94-18.76 17.37-19.19L17.37-19.19L17.37-19.19Q17.81-19.63 18.45-19.63L18.45-19.63L18.45-19.63Q19.12-19.63 19.59-19.19L19.59-19.19L19.59-19.19Q20.05-18.76 20.05-18.12L20.05-18.12L20.05-18.12Q20.05-17.47 19.59-17.04L19.59-17.04L19.59-17.04Q19.12-16.60 18.45-16.60L18.45-16.60L18.45-16.60Q17.81-16.60 17.37-17.04L17.37-17.04L17.37-17.04Q16.94-17.47 16.94-18.12" fill="#00aced" stroke="none" stroke-width="none" transform="translate(-69.2850341796875,7.583531748453769)" style="fill: rgb(0, 172, 237); animation-play-state: running; animation-delay: 0s;"></path></g><g class="path" style="opacity: 1; transform-origin: -36.175px 0.403532px; animation: 1s linear -0.44s infinite normal forwards running fade-35f64f8b-0da8-482c-a047-72c969395c05;"><path d="M23.60 0L23.60-11.54L23.60-11.54Q23.60-12.49 23.44-13.83L23.44-13.83L25.54-14.11L25.84-12.35L25.84-12.35Q26.60-12.91 27.33-13.33L27.33-13.33L27.33-13.33Q28.06-13.75 28.90-14.06L28.90-14.06L28.90-14.06Q29.74-14.36 30.60-14.36L30.60-14.36L30.60-14.36Q32.00-14.36 32.82-13.87L32.82-13.87L32.82-13.87Q33.63-13.38 34.02-12.21L34.02-12.21L34.02-12.21Q35.17-13.02 36.41-13.69L36.41-13.69L36.41-13.69Q37.66-14.36 39.00-14.36L39.00-14.36L39.00-14.36Q40.04-14.36 40.77-14.10L40.77-14.10L40.77-14.10Q41.50-13.83 41.94-13.22L41.94-13.22L41.94-13.22Q42.39-12.60 42.59-11.59L42.59-11.59L42.59-11.59Q42.78-10.58 42.78-9.07L42.78-9.07L42.78 0L40.54 0L40.54-8.82L40.54-8.82Q40.54-9.66 40.52-10.32L40.52-10.32L40.52-10.32Q40.49-10.98 40.32-11.44L40.32-11.44L40.32-11.44Q40.15-11.90 39.77-12.15L39.77-12.15L39.77-12.15Q39.40-12.40 38.70-12.40L38.70-12.40L38.70-12.40Q38.05-12.40 37.48-12.22L37.48-12.22L37.48-12.22Q36.90-12.04 36.29-11.70L36.29-11.70L36.29-11.70Q35.67-11.37 34.38-10.33L34.38-10.33L34.38 0L32.14 0L32.14-8.82L32.14-8.82Q32.14-9.66 32.12-10.32L32.12-10.32L32.12-10.32Q32.09-10.98 31.92-11.44L31.92-11.44L31.92-11.44Q31.75-11.90 31.37-12.15L31.37-12.15L31.37-12.15Q31.00-12.40 30.30-12.40L30.30-12.40L30.30-12.40Q29.57-12.40 28.78-12.10L28.78-12.10L28.78-12.10Q28.00-11.79 27.30-11.37L27.30-11.37L27.30-11.37Q26.60-10.95 25.84-10.39L25.84-10.39L25.84 0L23.60 0" fill="#00aced" stroke="none" stroke-width="none" transform="translate(-69.2850341796875,7.583531748453769)" style="fill: rgb(0, 172, 237); animation-play-state: running; animation-delay: 0s;"></path></g><g class="path" style="opacity: 1; transform-origin: -17.385px 0.583532px; animation: 1s linear -0.385s infinite normal forwards running fade-35f64f8b-0da8-482c-a047-72c969395c05;"><path d="M56.73-2.21L57.15-0.34L57.15-0.34Q56.50-0.14 55.82 0L55.82 0L55.82 0Q55.13 0.14 54.31 0.25L54.31 0.25L54.31 0.25Q53.48 0.36 52.58 0.36L52.58 0.36L52.58 0.36Q51.18 0.36 49.98-0.03L49.98-0.03L49.98-0.03Q48.78-0.42 47.88-1.29L47.88-1.29L47.88-1.29Q46.98-2.16 46.47-3.54L46.47-3.54L46.47-3.54Q45.95-4.93 45.95-6.94L45.95-6.94L45.95-6.94Q45.95-8.76 46.45-10.15L46.45-10.15L46.45-10.15Q46.96-11.54 47.84-12.47L47.84-12.47L47.84-12.47Q48.72-13.41 49.91-13.89L49.91-13.89L49.91-13.89Q51.10-14.36 52.50-14.36L52.50-14.36L52.50-14.36Q53.87-14.36 54.88-13.83L54.88-13.83L54.88-13.83Q55.89-13.30 56.55-12.39L56.55-12.39L56.55-12.39Q57.20-11.48 57.53-10.26L57.53-10.26L57.53-10.26Q57.85-9.04 57.85-7.70L57.85-7.70L57.43-6.47L48.38-6.47L48.38-6.47Q48.38-5.60 48.61-4.73L48.61-4.73L48.61-4.73Q48.83-3.86 49.38-3.16L49.38-3.16L49.38-3.16Q49.92-2.46 50.81-2.03L50.81-2.03L50.81-2.03Q51.69-1.60 53.00-1.60L53.00-1.60L53.00-1.60Q53.84-1.60 54.54-1.69L54.54-1.69L54.54-1.69Q55.24-1.79 55.76-1.92L55.76-1.92L55.76-1.92Q56.28-2.04 56.73-2.21L56.73-2.21zM48.47-8.26L55.52-8.26L55.52-8.26Q55.52-8.46 55.44-9.13L55.44-9.13L55.44-9.13Q55.36-9.80 55.05-10.53L55.05-10.53L55.05-10.53Q54.74-11.26 54.10-11.83L54.10-11.83L54.10-11.83Q53.45-12.40 52.39-12.40L52.39-12.40L52.39-12.40Q51.21-12.40 50.46-11.91L50.46-11.91L50.46-11.91Q49.70-11.42 49.25-10.75L49.25-10.75L49.25-10.75Q48.80-10.08 48.64-9.38L48.64-9.38L48.64-9.38Q48.47-8.68 48.47-8.26L48.47-8.26" fill="#00aced" stroke="none" stroke-width="none" transform="translate(-69.2850341796875,7.583531748453769)" style="fill: rgb(0, 172, 237); animation-play-state: running; animation-delay: 0s;"></path></g><g class="path" style="opacity: 1; transform-origin: -1.65003px -1.91147px; animation: 1s linear -0.33s infinite normal forwards running fade-35f64f8b-0da8-482c-a047-72c969395c05;"><path d="M74.84-18.48L74.34-16.41L74.34-16.41Q73.64-16.63 72.86-16.81L72.86-16.81L72.86-16.81Q72.07-17.00 71.13-17.12L71.13-17.12L71.13-17.12Q70.20-17.25 69.16-17.25L69.16-17.25L69.16-17.25Q67.48-17.25 66.30-16.52L66.30-16.52L66.30-16.52Q65.13-15.79 64.39-14.66L64.39-14.66L64.39-14.66Q63.64-13.52 63.31-12.12L63.31-12.12L63.31-12.12Q62.97-10.72 62.97-9.35L62.97-9.35L62.97-9.35Q62.97-7.62 63.46-6.20L63.46-6.20L63.46-6.20Q63.95-4.79 64.81-3.79L64.81-3.79L64.81-3.79Q65.66-2.80 66.79-2.27L66.79-2.27L66.79-2.27Q67.93-1.74 69.19-1.74L69.19-1.74L69.19-1.74Q70.36-1.74 71.34-1.86L71.34-1.86L71.34-1.86Q72.32-1.99 73.02-2.13L73.02-2.13L73.02-2.13Q73.84-2.30 74.48-2.52L74.48-2.52L74.96-0.53L74.96-0.53Q74.20-0.28 73.28-0.08L73.28-0.08L73.28-0.08Q72.49 0.08 71.46 0.22L71.46 0.22L71.46 0.22Q70.42 0.36 69.19 0.36L69.19 0.36L69.19 0.36Q66.98 0.36 65.31-0.36L65.31-0.36L65.31-0.36Q63.64-1.09 62.54-2.39L62.54-2.39L62.54-2.39Q61.43-3.70 60.87-5.47L60.87-5.47L60.87-5.47Q60.31-7.25 60.31-9.38L60.31-9.38L60.31-9.38Q60.31-11.82 60.98-13.68L60.98-13.68L60.98-13.68Q61.66-15.54 62.83-16.80L62.83-16.80L62.83-16.80Q64.01-18.06 65.63-18.70L65.63-18.70L65.63-18.70Q67.26-19.35 69.19-19.35L69.19-19.35L69.19-19.35Q70.36-19.35 71.39-19.22L71.39-19.22L71.39-19.22Q72.41-19.10 73.26-18.90L73.26-18.90L73.26-18.90Q74.12-18.70 74.84-18.48L74.84-18.48" fill="#00aced" stroke="none" stroke-width="none" transform="translate(-69.2850341796875,7.583531748453769)" style="fill: rgb(0, 172, 237); animation-play-state: running; animation-delay: 0s;"></path></g><g class="path" style="opacity: 1; transform-origin: 14.285px -3.02647px; animation: 1s linear -0.275s infinite normal forwards running fade-35f64f8b-0da8-482c-a047-72c969395c05;"><path d="M77.90 0L77.90-20.97L80.14-21.22L80.14-12.32L80.14-12.32Q80.98-12.88 81.80-13.30L81.80-13.30L81.80-13.30Q82.63-13.72 83.50-14.04L83.50-14.04L83.50-14.04Q84.36-14.36 85.18-14.36L85.18-14.36L85.18-14.36Q86.32-14.36 87.09-14.10L87.09-14.10L87.09-14.10Q87.86-13.83 88.34-13.22L88.34-13.22L88.34-13.22Q88.82-12.60 89.03-11.59L89.03-11.59L89.03-11.59Q89.24-10.58 89.24-9.07L89.24-9.07L89.24 0L87.00 0L87.00-8.82L87.00-8.82Q87.00-9.66 86.97-10.32L86.97-10.32L86.97-10.32Q86.94-10.98 86.73-11.44L86.73-11.44L86.73-11.44Q86.52-11.90 86.09-12.15L86.09-12.15L86.09-12.15Q85.65-12.40 84.87-12.40L84.87-12.40L84.87-12.40Q84.14-12.40 83.30-12.08L83.30-12.08L83.30-12.08Q82.46-11.76 81.70-11.34L81.70-11.34L81.70-11.34Q80.95-10.92 80.14-10.36L80.14-10.36L80.14 0L77.90 0" fill="#00aced" stroke="none" stroke-width="none" transform="translate(-69.2850341796875,7.583531748453769)" style="fill: rgb(0, 172, 237); animation-play-state: running; animation-delay: 0s;"></path></g><g class="path" style="opacity: 1; transform-origin: 28.435px 0.583532px; animation: 1s linear -0.22s infinite normal forwards running fade-35f64f8b-0da8-482c-a047-72c969395c05;"><path d="M101.02-3.28L101.02-6.47L101.02-6.47Q100.46-6.44 99.96-6.41L99.96-6.41L99.96-6.41Q99.46-6.38 98.97-6.34L98.97-6.34L98.97-6.34Q98.48-6.30 98.08-6.24L98.08-6.24L98.08-6.24Q96.07-5.99 95.23-5.36L95.23-5.36L95.23-5.36Q94.39-4.73 94.39-3.56L94.39-3.56L94.39-3.56Q94.39-2.58 94.99-2.09L94.99-2.09L94.99-2.09Q95.59-1.60 96.57-1.60L96.57-1.60L96.57-1.60Q97.92-1.60 98.97-2.06L98.97-2.06L98.97-2.06Q100.02-2.52 101.02-3.28L101.02-3.28zM101.28 0.22L101.00-1.32L101.00-1.32Q99.68-0.56 98.55-0.10L98.55-0.10L98.55-0.10Q97.41 0.36 96.10 0.36L96.10 0.36L96.10 0.36Q94.22 0.36 93.11-0.55L93.11-0.55L93.11-0.55Q92.01-1.46 92.01-3.56L92.01-3.56L92.01-3.56Q92.01-4.65 92.57-5.46L92.57-5.46L92.57-5.46Q93.13-6.27 94.04-6.82L94.04-6.82L94.04-6.82Q94.95-7.36 96.10-7.67L96.10-7.67L96.10-7.67Q97.24-7.98 98.45-8.06L98.45-8.06L98.45-8.06Q98.95-8.12 99.76-8.16L99.76-8.16L99.76-8.16Q100.58-8.20 101.02-8.23L101.02-8.23L101.02-8.23Q101.02-9.21 100.97-9.98L100.97-9.98L100.97-9.98Q100.91-10.75 100.63-11.30L100.63-11.30L100.63-11.30Q100.35-11.84 99.81-12.12L99.81-12.12L99.81-12.12Q99.26-12.40 98.25-12.40L98.25-12.40L98.25-12.40Q97.44-12.40 96.68-12.31L96.68-12.31L96.68-12.31Q95.93-12.21 95.34-12.10L95.34-12.10L95.34-12.10Q94.64-11.96 94.05-11.79L94.05-11.79L93.60-13.72L93.60-13.72Q94.30-13.89 95.12-14.03L95.12-14.03L95.12-14.03Q95.82-14.17 96.74-14.27L96.74-14.27L96.74-14.27Q97.66-14.36 98.73-14.36L98.73-14.36L98.73-14.36Q100.16-14.36 101.04-13.94L101.04-13.94L101.04-13.94Q101.92-13.52 102.41-12.81L102.41-12.81L102.41-12.81Q102.90-12.10 103.08-11.19L103.08-11.19L103.08-11.19Q103.26-10.28 103.26-9.27L103.26-9.27L103.26-2.55L103.26-2.55Q103.26-2.16 103.28-1.72L103.28-1.72L103.28-1.72Q103.29-1.29 103.33-0.87L103.33-0.87L103.33-0.87Q103.38-0.45 103.43 0L103.43 0L101.28 0.22" fill="#00aced" stroke="none" stroke-width="none" transform="translate(-69.2850341796875,7.583531748453769)" style="fill: rgb(0, 172, 237); animation-play-state: running; animation-delay: 0s;"></path></g><g class="path" style="opacity: 1; transform-origin: 40.99px -1.37647px; animation: 1s linear -0.165s infinite normal forwards running fade-35f64f8b-0da8-482c-a047-72c969395c05;"><path d="M108.25-18.00L110.49-18.28L110.49-14.08L114.55-14.08L114.55-12.26L110.49-12.26L110.49-4.79L110.49-4.79Q110.49-3.86 110.53-3.25L110.53-3.25L110.53-3.25Q110.57-2.63 110.71-2.27L110.71-2.27L110.71-2.27Q110.85-1.90 111.10-1.75L111.10-1.75L111.10-1.75Q111.36-1.60 111.75-1.60L111.75-1.60L111.75-1.60Q112.81-1.62 114.21-2.38L114.21-2.38L114.88-0.67L114.88-0.67Q113.96-0.06 113.16 0.15L113.16 0.15L113.16 0.15Q112.36 0.36 111.58 0.36L111.58 0.36L111.58 0.36Q109.73 0.36 108.99-0.69L108.99-0.69L108.99-0.69Q108.25-1.74 108.25-4.17L108.25-4.17L108.25-12.26L105.67-12.26L105.67-14.08L108.25-14.08L108.25-18.00" fill="#00aced" stroke="none" stroke-width="none" transform="translate(-69.2850341796875,7.583531748453769)" style="fill: rgb(0, 172, 237); animation-play-state: running; animation-delay: 0s;"></path></g><g class="path" style="opacity: 1; transform-origin: 55.64px 5.93353px; animation: 1s linear -0.11s infinite normal forwards running fade-35f64f8b-0da8-482c-a047-72c969395c05;"><path d="M123.23-1.65L123.23-1.65L123.23-1.65Q123.23-2.32 123.70-2.81L123.70-2.81L123.70-2.81Q124.18-3.30 124.88-3.30L124.88-3.30L124.88-3.30Q125.61-3.30 126.11-2.81L126.11-2.81L126.11-2.81Q126.62-2.32 126.62-1.65L126.62-1.65L126.62-1.65Q126.62-0.95 126.11-0.48L126.11-0.48L126.11-0.48Q125.61 0 124.88 0L124.88 0L124.88 0Q124.18 0 123.70-0.48L123.70-0.48L123.70-0.48Q123.23-0.95 123.23-1.65" fill="#00aced" stroke="none" stroke-width="none" transform="translate(-69.2850341796875,7.583531748453769)" style="fill: rgb(0, 172, 237); animation-play-state: running; animation-delay: 0s;"></path></g><g class="path" style="opacity: 1; transform-origin: 61.85px 5.93353px; animation: 1s linear -0.055s infinite normal forwards running fade-35f64f8b-0da8-482c-a047-72c969395c05;"><path d="M129.44-1.65L129.44-1.65L129.44-1.65Q129.44-2.32 129.92-2.81L129.92-2.81L129.92-2.81Q130.40-3.30 131.10-3.30L131.10-3.30L131.10-3.30Q131.82-3.30 132.33-2.81L132.33-2.81L132.33-2.81Q132.83-2.32 132.83-1.65L132.83-1.65L132.83-1.65Q132.83-0.95 132.33-0.48L132.33-0.48L132.33-0.48Q131.82 0 131.10 0L131.10 0L131.10 0Q130.40 0 129.92-0.48L129.92-0.48L129.92-0.48Q129.44-0.95 129.44-1.65" fill="#00aced" stroke="none" stroke-width="none" transform="translate(-69.2850341796875,7.583531748453769)" style="fill: rgb(0, 172, 237); animation-play-state: running; animation-delay: 0s;"></path></g><g class="path" style="opacity: 1; transform-origin: 68.07px 5.93353px; animation: 1s linear 0s infinite normal forwards running fade-35f64f8b-0da8-482c-a047-72c969395c05;"><path d="M135.66-1.65L135.66-1.65L135.66-1.65Q135.66-2.32 136.14-2.81L136.14-2.81L136.14-2.81Q136.61-3.30 137.31-3.30L137.31-3.30L137.31-3.30Q138.04-3.30 138.54-2.81L138.54-2.81L138.54-2.81Q139.05-2.32 139.05-1.65L139.05-1.65L139.05-1.65Q139.05-0.95 138.54-0.48L138.54-0.48L138.54-0.48Q138.04 0 137.31 0L137.31 0L137.31 0Q136.61 0 136.14-0.48L136.14-0.48L136.14-0.48Q135.66-0.95 135.66-1.65" fill="#00aced" stroke="none" stroke-width="none" transform="translate(-69.2850341796875,7.583531748453769)" style="fill: rgb(0, 172, 237); animation-play-state: running; animation-delay: 0s;"></path></g></g>
</g>
</g>
<style id="fade-35f64f8b-0da8-482c-a047-72c969395c05" data-anikit="">@keyframes fade-35f64f8b-0da8-482c-a047-72c969395c05
{
  0% {
    animation-timing-function: cubic-bezier(0.2057,0.573,0.3723,0.9184);
    opacity: 1;
  }
  100% {
    opacity: 0;
  }
}</style></svg>